<?xml version="1.0" encoding="utf-8"?>
<svg version="1.1" id="Layer_1" xmlns="http://www.w3.org/2000/svg" xmlns:xlink="http://www.w3.org/1999/xlink" x="0px" y="0px"
	 width="456px" height="456px" viewBox="0 0 456 456" style="enable-background:new 0 0 456 456;" xml:space="preserve">
<style type="text/css">
	.st0{fill:#FFFFFF;}
	.st1{fill:#331C67;}
</style>
<g>
	<g>
		<path class="st0" d="M303.4,161.4V181l-29.5-19.7v-17.5c0-1.3-0.6-2.5-1.8-3.3L234,115.6c-3.2-2.1-7.5-2.1-10.7,0l-38.1,24.8
			c-1.1,0.7-1.8,1.9-1.8,3.3v49.7c0,4,2.7,5.5,6.1,3.3l34.9-22.7c2.3-1.5,6.2-1.5,8.6,0l34.9,22.8c3.3,2.1,6.1,0.7,6.1-3.3v-22.2
			l29.5,19.7v61.5c0,4-2.7,5.5-6.1,3.3l-64.4-42.4c-2.4-1.5-6.3-1.5-8.6,0l-64.4,42.4c-3.3,2.2-6.1,0.7-6.1-3.3v-91.1l-9.2,5.8
			c-4,2.5-6.5,6.9-6.5,11.7v79.4c0,4.1,2.8,9.3,6.2,11.5l78.9,51.5c3.2,2.1,7.5,2.1,10.7,0l78.9-51.5c3.4-2.2,6.2-7.4,6.2-11.5
			v-79.4c0-4.7-2.4-9.2-6.5-11.7L303.4,161.4z"/>
	</g>
	<path class="st1" d="M237.4,313.9v-27.2c0-3.6,1.8-7,4.9-9l26.9-17.4c3.5-2.3,8.1-2.3,11.6,0l26.9,17.4c3,1.9,4.9,5.4,4.9,9v27.2
		c0,3.6-1.8,7-4.9,9l-26.9,17.4c-3.5,2.3-8.1,2.3-11.6,0l-26.9-17.4C239.2,320.9,237.4,317.5,237.4,313.9z"/>
	<g>
		<polygon class="st0" points="302.7,289.6 290.9,289.6 290.9,293.5 294.8,293.5 294.8,309.3 298.8,309.3 298.8,293.5 302.7,293.5 
					"/>
		<polygon class="st0" points="288.9,305.3 281.1,305.3 281.1,301.4 286.9,301.4 286.9,297.5 281.1,297.5 281.1,293.5 288.9,293.5 
			288.9,289.6 277.1,289.6 277.1,309.3 288.9,309.3 		"/>
		<path class="st0" d="M273.2,289.6h-3.9v13.7l-7.9-13.7h-3.9v19.7h3.9c0,0,0-13.3,0-13.7l7.9,13.7h3.9V289.6z"/>
		<path class="st0" d="M252.3,302.6c-0.8-0.8-1.7-1.2-2.8-1.2c-1,0-1.9,0.4-2.7,1.1c-0.7,0.7-1.1,1.7-1.1,2.8c0,1,0.3,2,1.1,2.8
			s1.6,1.2,2.7,1.2s2.1-0.4,2.8-1.2c0.7-0.8,1.1-1.7,1.1-2.7C253.5,304.3,253.1,303.4,252.3,302.6"/>
	</g>
</g>
</svg>
