<svg xmlns="http://www.w3.org/2000/svg" xmlns:xlink="http://www.w3.org/1999/xlink" viewBox="0,0,256,256" width="30px" height="30px" fill-rule="nonzero"><g fill="#ffffff" fill-rule="nonzero" stroke="none" stroke-width="1" stroke-linecap="butt" stroke-linejoin="miter" stroke-miterlimit="10" stroke-dasharray="" stroke-dashoffset="0" font-family="none" font-weight="none" font-size="none" text-anchor="none" style="mix-blend-mode: normal"><g transform="scale(8.53333,8.53333)"><path d="M9.98438,0.98633c-0.55152,0.00862 -0.99193,0.46214 -0.98437,1.01367v1c-0.0051,0.36064 0.18438,0.69608 0.49587,0.87789c0.3115,0.18181 0.69676,0.18181 1.00825,0c0.3115,-0.18181 0.50097,-0.51725 0.49587,-0.87789v-1c0.0037,-0.2703 -0.10218,-0.53059 -0.29351,-0.72155c-0.19133,-0.19097 -0.45182,-0.29634 -0.72212,-0.29212zM4.33203,3.33203c-0.40744,0.00008 -0.77411,0.24733 -0.92691,0.62504c-0.1528,0.37771 -0.06119,0.81035 0.23159,1.09371l0.70703,0.70703c0.25082,0.26123 0.62327,0.36646 0.9737,0.2751c0.35044,-0.09136 0.62411,-0.36503 0.71546,-0.71546c0.09136,-0.35044 -0.01387,-0.72288 -0.2751,-0.9737l-0.70703,-0.70703c-0.18841,-0.19474 -0.44778,-0.30469 -0.71875,-0.30469zM15.63672,3.33398c-0.2598,0.00774 -0.50638,0.11632 -0.6875,0.30273l-0.70703,0.70703c-0.26124,0.25082 -0.36647,0.62327 -0.27511,0.97371c0.09136,0.35044 0.36503,0.62411 0.71547,0.71547c0.35044,0.09136 0.72289,-0.01387 0.97371,-0.27511l0.70703,-0.70703c0.29576,-0.28749 0.38469,-0.72707 0.22393,-1.10691c-0.16075,-0.37985 -0.53821,-0.62204 -0.9505,-0.60988zM24.98047,3.99023c-0.2598,0.00774 -0.50638,0.11632 -0.6875,0.30273l-20,20c-0.26124,0.25082 -0.36647,0.62327 -0.27511,0.97371c0.09136,0.35044 0.36503,0.62411 0.71547,0.71547c0.35044,0.09136 0.72289,-0.01388 0.97371,-0.27511l20,-20c0.29576,-0.28749 0.38469,-0.72707 0.22393,-1.10691c-0.16075,-0.37985 -0.53821,-0.62204 -0.9505,-0.60988zM10,6c-2.20914,0 -4,1.79086 -4,4c0,2.20914 1.79086,4 4,4c2.20914,0 4,-1.79086 4,-4c0,-2.20914 -1.79086,-4 -4,-4zM2,9c-0.36064,-0.0051 -0.69608,0.18438 -0.87789,0.49587c-0.18181,0.3115 -0.18181,0.69676 0,1.00825c0.18181,0.3115 0.51725,0.50097 0.87789,0.49587h1c0.36064,0.0051 0.69608,-0.18438 0.87789,-0.49587c0.18181,-0.3115 0.18181,-0.69676 0,-1.00825c-0.18181,-0.3115 -0.51725,-0.50097 -0.87789,-0.49587zM24,12c-0.55228,0 -1,0.44772 -1,1c0,0.55228 0.44772,1 1,1c0.55228,0 1,-0.44772 1,-1c0,-0.55228 -0.44772,-1 -1,-1zM5.03125,13.93945c-0.2598,0.00774 -0.50638,0.11632 -0.6875,0.30274l-0.70703,0.70703c-0.26124,0.25082 -0.36647,0.62327 -0.27511,0.97371c0.09136,0.35044 0.36503,0.62411 0.71547,0.71547c0.35044,0.09136 0.72289,-0.01388 0.97371,-0.27511l0.70703,-0.70703c0.29576,-0.28749 0.38469,-0.72707 0.22393,-1.10691c-0.16075,-0.37985 -0.53821,-0.62204 -0.9505,-0.60988zM26,16c-0.55228,0 -1,0.44772 -1,1c0,0.55228 0.44772,1 1,1c0.55228,0 1,-0.44772 1,-1c0,-0.55228 -0.44772,-1 -1,-1zM20.16992,16.16992c-2.393,0.596 -4.16992,2.75208 -4.16992,5.33008c0,3.038 2.462,5.5 5.5,5.5c2.578,0 4.73408,-1.77692 5.33008,-4.16992c-0.427,0.106 -0.87008,0.16992 -1.33008,0.16992c-3.038,0 -5.5,-2.462 -5.5,-5.5c0,-0.46 0.06392,-0.90308 0.16992,-1.33008z"></path></g></g></svg>