<?xml version="1.0" encoding="utf-8"?>
<!-- Generator: Adobe Illustrator 17.0.0, SVG Export Plug-In . SVG Version: 6.00 Build 0)  -->
<!DOCTYPE svg PUBLIC "-//W3C//DTD SVG 1.1//EN" "http://www.w3.org/Graphics/SVG/1.1/DTD/svg11.dtd">
<svg version="1.1" id="Livello_1" xmlns="http://www.w3.org/2000/svg" xmlns:xlink="http://www.w3.org/1999/xlink" x="0px" y="0px"
	 width="841.89px" height="595.28px" viewBox="0 0 841.89 595.28" enable-background="new 0 0 841.89 595.28" xml:space="preserve">
<g>
	<g>
		<polygon points="278.927,245.233 278.927,267.975 250.811,249.311 250.811,226.572 207.856,198 164.9,226.572 164.9,286.281 
			207.856,258.156 250.811,286.281 250.811,257.197 278.927,275.861 278.927,341.75 207.856,298 136.784,341.75 136.784,245.322 
			121.945,255.031 121.945,340.969 207.856,398 293.767,340.969 293.767,285.712 293.767,277.826 293.767,255.143 		"/>
		<g>
			<path d="M395.076,340.295h-18.076l-14.02-57.468h-0.23l-13.79,57.468h-18.423l-21.898-84.429h18.189l13.094,57.469h0.232
				l14.367-57.469h17.035l14.135,58.178h0.232l13.556-58.178h17.844L395.076,340.295z"/>
			<rect x="422.797" y="255.866" width="16.454" height="13.835"/>
			<rect x="422.797" y="279.161" width="16.454" height="61.134"/>
			<path d="M461.569,320.429c0.115,7.33,6.14,10.287,12.63,10.287c4.75,0,10.776-1.891,10.776-7.804
				c0-5.086-6.837-6.859-18.653-9.461c-9.502-2.127-19.004-5.558-19.004-16.317c0-15.609,13.209-19.63,26.071-19.63
				c13.094,0,25.145,4.494,26.418,19.511h-15.643c-0.462-6.503-5.329-8.277-11.24-8.277c-3.707,0-9.153,0.709-9.153,5.675
				c0,6.031,9.27,6.859,18.655,9.106c9.617,2.247,19.002,5.794,19.002,17.145c0,16.082-13.673,21.285-27.344,21.285
				c-13.905,0-27.461-5.322-28.157-21.521H461.569z"/>
			<path d="M522.353,313.808c0.464,10.642,5.563,15.49,14.716,15.49c6.605,0,11.936-4.139,12.977-7.924h14.484
				c-4.633,14.427-14.484,20.576-28.04,20.576c-18.887,0-30.591-13.244-30.591-32.163c0-18.329,12.4-32.283,30.591-32.283
				c20.393,0,30.242,17.501,29.084,36.303H522.353z M549.12,303.164c-1.507-8.514-5.099-13.007-13.094-13.007
				c-10.428,0-13.439,8.277-13.673,13.007H549.12z"/>
			<path d="M563.154,347.508c1.043,0.355,2.202,0.473,3.592,0.473c3.36,0,6.374-0.828,6.374-5.441v-63.38h16.452v64.208
				c0,12.535-4.518,18.447-21.089,18.447c-1.737,0-3.592-0.236-5.329-0.473V347.508z"/>
			<rect x="573.121" y="255.866" width="16.452" height="13.835"/>
		</g>
	</g>
	<g>
		<g>
			<path fill="#9900CC" d="M595.614,342.892c-5.074,0-9.203-4.13-9.203-9.205s4.129-9.205,9.203-9.205s9.203,4.13,9.203,9.205
				S600.688,342.892,595.614,342.892z"/>
			<path fill="#FFFFFF" d="M595.614,327.111c3.63,0,6.573,2.944,6.573,6.575c0,3.632-2.943,6.575-6.573,6.575
				c-3.63,0-6.573-2.944-6.573-6.575C589.041,330.055,591.984,327.111,595.614,327.111 M595.614,321.852
				c-6.525,0-11.833,5.309-11.833,11.835s5.308,11.835,11.833,11.835s11.833-5.309,11.833-11.835S602.139,321.852,595.614,321.852
				L595.614,321.852z"/>
		</g>
		<text transform="matrix(0.9997 0 0 1 601.3641 340.2712)"><tspan x="0" y="0" fill="#9900CC" font-family="'OpenSans-SemiBold'" font-size="64.8778" letter-spacing="-5.001">N</tspan><tspan x="45.752" y="0" fill="#9900CC" font-family="'OpenSans-SemiBold'" font-size="64.8778">ET</tspan></text>
	</g>
</g>
</svg>
