<?xml version="1.0" encoding="UTF-8"?>
<svg xmlns="http://www.w3.org/2000/svg" xmlns:xlink="http://www.w3.org/1999/xlink" width="456px" height="322px" viewBox="0 0 455 322" version="1.1">
<g id="surface1">
<path style=" stroke:none;fill-rule:nonzero;fill:rgb(0%,0%,0%);fill-opacity:1;" d="M 150.820312 132.714844 L 150.820312 145.023438 L 135.644531 134.921875 L 135.644531 122.617188 L 112.453125 107.152344 L 89.261719 122.617188 L 89.261719 154.925781 L 112.453125 139.707031 L 135.644531 154.925781 L 135.644531 139.191406 L 150.820312 149.289062 L 150.820312 184.945312 L 112.453125 161.269531 L 74.082031 184.945312 L 74.082031 132.761719 L 66.070312 138.015625 L 66.070312 184.523438 L 112.453125 215.386719 L 158.835938 184.523438 L 158.835938 138.078125 Z M 150.820312 132.714844 "/>
<path style=" stroke:none;fill-rule:nonzero;fill:rgb(0%,0%,0%);fill-opacity:1;" d="M 213.53125 184.160156 L 203.773438 184.160156 L 196.203125 153.058594 L 196.078125 153.058594 L 188.632812 184.160156 L 178.6875 184.160156 L 166.863281 138.46875 L 176.683594 138.46875 L 183.753906 169.566406 L 183.878906 169.566406 L 191.636719 138.46875 L 200.832031 138.46875 L 208.464844 169.953125 L 208.585938 169.953125 L 215.90625 138.46875 L 225.542969 138.46875 Z M 213.53125 184.160156 "/>
<path style=" stroke:none;fill-rule:nonzero;fill:rgb(0%,0%,0%);fill-opacity:1;" d="M 228.496094 138.46875 L 237.378906 138.46875 L 237.378906 145.957031 L 228.496094 145.957031 Z M 228.496094 138.46875 "/>
<path style=" stroke:none;fill-rule:nonzero;fill:rgb(0%,0%,0%);fill-opacity:1;" d="M 228.496094 151.074219 L 237.378906 151.074219 L 237.378906 184.160156 L 228.496094 184.160156 Z M 228.496094 151.074219 "/>
<path style=" stroke:none;fill-rule:nonzero;fill:rgb(0%,0%,0%);fill-opacity:1;" d="M 249.425781 173.410156 C 249.492188 177.375 252.742188 178.976562 256.246094 178.976562 C 258.8125 178.976562 262.066406 177.953125 262.066406 174.75 C 262.066406 172 258.375 171.039062 251.996094 169.632812 C 246.863281 168.480469 241.734375 166.625 241.734375 160.804688 C 241.734375 152.355469 248.867188 150.179688 255.808594 150.179688 C 262.878906 150.179688 269.386719 152.613281 270.074219 160.738281 L 261.628906 160.738281 C 261.378906 157.21875 258.75 156.257812 255.558594 156.257812 C 253.558594 156.257812 250.617188 156.640625 250.617188 159.328125 C 250.617188 162.59375 255.621094 163.039062 260.6875 164.257812 C 265.882812 165.472656 270.949219 167.394531 270.949219 173.535156 C 270.949219 182.238281 263.566406 185.054688 256.183594 185.054688 C 248.675781 185.054688 241.359375 182.175781 240.984375 173.410156 Z M 249.425781 173.410156 "/>
<path style=" stroke:none;fill-rule:nonzero;fill:rgb(0%,0%,0%);fill-opacity:1;" d="M 282.246094 169.824219 C 282.496094 175.585938 285.25 178.207031 290.191406 178.207031 C 293.757812 178.207031 296.632812 175.96875 297.195312 173.921875 L 305.015625 173.921875 C 302.515625 181.726562 297.195312 185.054688 289.878906 185.054688 C 279.679688 185.054688 273.363281 177.890625 273.363281 167.648438 C 273.363281 157.730469 280.054688 150.179688 289.878906 150.179688 C 300.886719 150.179688 306.207031 159.648438 305.582031 169.824219 Z M 296.695312 164.0625 C 295.882812 159.457031 293.941406 157.027344 289.625 157.027344 C 283.996094 157.027344 282.371094 161.507812 282.246094 164.0625 Z M 296.695312 164.0625 "/>
<path style=" stroke:none;fill-rule:nonzero;fill:rgb(0%,0%,0%);fill-opacity:1;" d="M 309.65625 138.46875 L 318.535156 138.46875 L 318.535156 145.957031 L 309.65625 145.957031 Z M 309.65625 138.46875 "/>
<path style=" stroke:none;fill-rule:nonzero;fill:rgb(0%,0%,0%);fill-opacity:1;" d="M 315.410156 180.585938 C 315.410156 178.246094 316.667969 176.207031 318.535156 175.085938 L 318.535156 151.074219 L 309.65625 151.074219 L 309.65625 185.375 C 309.65625 187.871094 308.023438 188.320312 306.210938 188.320312 C 305.460938 188.320312 304.835938 188.253906 304.273438 188.0625 L 304.273438 195.550781 C 305.210938 195.679688 306.210938 195.804688 307.152344 195.804688 C 315.980469 195.804688 318.472656 192.683594 318.535156 186.078125 C 316.664062 184.960938 315.410156 182.917969 315.410156 180.585938 Z M 315.410156 180.585938 "/>
<path style=" stroke:none;fill-rule:nonzero;fill:rgb(0%,37.254902%,70.980392%);fill-opacity:1;" d="M 321.796875 177.023438 C 323.757812 177.023438 325.347656 178.617188 325.347656 180.582031 C 325.347656 182.550781 323.757812 184.140625 321.796875 184.140625 C 319.835938 184.140625 318.25 182.550781 318.25 180.582031 C 318.25 178.617188 319.835938 177.023438 321.796875 177.023438 "/>
<path style=" stroke:none;fill-rule:nonzero;fill:rgb(0%,37.254902%,70.980392%);fill-opacity:1;" d="M 349.042969 184.148438 L 344 184.148438 L 331.757812 164.140625 L 331.605469 164.140625 C 331.648438 164.8125 331.691406 165.527344 331.734375 166.28125 C 331.773438 167.039062 331.804688 167.816406 331.835938 168.613281 C 331.863281 169.417969 331.886719 170.226562 331.914062 171.046875 L 331.914062 184.148438 L 328.183594 184.148438 L 328.183594 159.082031 L 333.195312 159.082031 L 345.417969 178.953125 L 345.539062 178.953125 C 345.515625 178.371094 345.488281 177.699219 345.453125 176.945312 C 345.417969 176.191406 345.390625 175.414062 345.359375 174.609375 C 345.328125 173.800781 345.308594 173.019531 345.300781 172.265625 L 345.300781 159.082031 L 349.042969 159.082031 Z M 349.042969 184.148438 "/>
<path style=" stroke:none;fill-rule:nonzero;fill:rgb(0%,37.254902%,70.980392%);fill-opacity:1;" d="M 367.035156 184.148438 L 352.878906 184.148438 L 352.878906 159.082031 L 367.035156 159.082031 L 367.035156 162.542969 L 356.980469 162.542969 L 356.980469 169.351562 L 366.402344 169.351562 L 366.402344 172.796875 L 356.980469 172.796875 L 356.980469 180.667969 L 367.035156 180.667969 Z M 367.035156 184.148438 "/>
<path style=" stroke:none;fill-rule:nonzero;fill:rgb(0%,37.254902%,70.980392%);fill-opacity:1;" d="M 381.089844 184.148438 L 376.96875 184.148438 L 376.96875 162.578125 L 369.652344 162.578125 L 369.652344 159.082031 L 388.390625 159.082031 L 388.390625 162.578125 L 381.089844 162.578125 Z M 381.089844 184.148438 "/>
</g>
</svg>
