<?xml version="1.0" encoding="UTF-8"?>
<svg xmlns="http://www.w3.org/2000/svg" xmlns:xlink="http://www.w3.org/1999/xlink" width="842px" height="595px" viewBox="0 0 632 447" version="1.1">
<g id="surface1">
<path style=" stroke:none;fill-rule:nonzero;fill:rgb(0%,0%,0%);fill-opacity:1;" d="M 209.398438 184.234375 L 209.398438 201.320312 L 188.296875 187.296875 L 188.296875 170.214844 L 156.054688 148.75 L 123.8125 170.214844 L 123.8125 215.070312 L 156.054688 193.941406 L 188.296875 215.070312 L 188.296875 193.222656 L 209.398438 207.242188 L 209.398438 256.742188 L 156.054688 223.875 L 102.710938 256.742188 L 102.710938 184.300781 L 91.574219 191.59375 L 91.574219 256.15625 L 156.054688 299 L 220.539062 256.15625 L 220.539062 191.679688 Z M 209.398438 184.234375 "/>
<path style=" stroke:none;fill-rule:nonzero;fill:rgb(0%,0%,0%);fill-opacity:1;" d="M 296.578125 255.648438 L 283.011719 255.648438 L 272.488281 212.476562 L 272.316406 212.476562 L 261.964844 255.648438 L 248.136719 255.648438 L 231.699219 192.222656 L 245.351562 192.222656 L 255.179688 235.394531 L 255.355469 235.394531 L 266.140625 192.222656 L 278.925781 192.222656 L 289.535156 235.929688 L 289.707031 235.929688 L 299.882812 192.222656 L 313.277344 192.222656 Z M 296.578125 255.648438 "/>
<path style=" stroke:none;fill-rule:nonzero;fill:rgb(0%,0%,0%);fill-opacity:1;" d="M 317.386719 192.222656 L 329.734375 192.222656 L 329.734375 202.617188 L 317.386719 202.617188 Z M 317.386719 192.222656 "/>
<path style=" stroke:none;fill-rule:nonzero;fill:rgb(0%,0%,0%);fill-opacity:1;" d="M 317.386719 209.722656 L 329.734375 209.722656 L 329.734375 255.648438 L 317.386719 255.648438 Z M 317.386719 209.722656 "/>
<path style=" stroke:none;fill-rule:nonzero;fill:rgb(0%,0%,0%);fill-opacity:1;" d="M 346.484375 240.726562 C 346.574219 246.230469 351.09375 248.453125 355.964844 248.453125 C 359.53125 248.453125 364.054688 247.035156 364.054688 242.589844 C 364.054688 238.769531 358.921875 237.4375 350.054688 235.484375 C 342.921875 233.886719 335.789062 231.308594 335.789062 223.226562 C 335.789062 211.5 345.703125 208.476562 355.355469 208.476562 C 365.1875 208.476562 374.230469 211.855469 375.1875 223.136719 L 363.445312 223.136719 C 363.097656 218.25 359.445312 216.917969 355.007812 216.917969 C 352.226562 216.917969 348.136719 217.449219 348.136719 221.179688 C 348.136719 225.710938 355.09375 226.332031 362.140625 228.023438 C 369.359375 229.710938 376.402344 232.375 376.402344 240.902344 C 376.402344 252.984375 366.140625 256.894531 355.878906 256.894531 C 345.441406 256.894531 335.269531 252.894531 334.746094 240.726562 Z M 346.484375 240.726562 "/>
<path style=" stroke:none;fill-rule:nonzero;fill:rgb(0%,0%,0%);fill-opacity:1;" d="M 392.109375 235.75 C 392.457031 243.746094 396.285156 247.386719 403.15625 247.386719 C 408.113281 247.386719 412.113281 244.277344 412.894531 241.4375 L 423.765625 241.4375 C 420.289062 252.273438 412.894531 256.894531 402.722656 256.894531 C 388.542969 256.894531 379.761719 246.945312 379.761719 232.730469 C 379.761719 218.960938 389.066406 208.476562 402.722656 208.476562 C 418.027344 208.476562 425.421875 221.625 424.550781 235.75 Z M 412.199219 227.753906 C 411.070312 221.359375 408.371094 217.984375 402.371094 217.984375 C 394.542969 217.984375 392.285156 224.203125 392.109375 227.753906 Z M 412.199219 227.753906 "/>
<path style=" stroke:none;fill-rule:nonzero;fill:rgb(0%,0%,0%);fill-opacity:1;" d="M 430.214844 192.222656 L 442.5625 192.222656 L 442.5625 202.617188 L 430.214844 202.617188 Z M 430.214844 192.222656 "/>
<path style=" stroke:none;fill-rule:nonzero;fill:rgb(0%,0%,0%);fill-opacity:1;" d="M 438.214844 250.6875 C 438.214844 247.441406 439.964844 244.609375 442.5625 243.054688 L 442.5625 209.722656 L 430.214844 209.722656 L 430.214844 257.335938 C 430.214844 260.800781 427.949219 261.425781 425.429688 261.425781 C 424.386719 261.425781 423.515625 261.335938 422.734375 261.070312 L 422.734375 271.460938 C 424.035156 271.640625 425.429688 271.816406 426.734375 271.816406 C 439.011719 271.816406 442.472656 267.484375 442.558594 258.3125 C 439.960938 256.761719 438.214844 253.925781 438.214844 250.6875 Z M 438.214844 250.6875 "/>
<path style=" stroke:none;fill-rule:nonzero;fill:rgb(0%,37.254902%,70.980392%);fill-opacity:1;" d="M 447.097656 245.746094 C 449.820312 245.746094 452.03125 247.957031 452.03125 250.683594 C 452.03125 253.414062 449.820312 255.625 447.097656 255.625 C 444.371094 255.625 442.164062 253.414062 442.164062 250.683594 C 442.164062 247.957031 444.371094 245.746094 447.097656 245.746094 "/>
<path style=" stroke:none;fill-rule:nonzero;fill:rgb(0%,37.254902%,70.980392%);fill-opacity:1;" d="M 484.976562 255.632812 L 477.964844 255.632812 L 460.945312 227.859375 L 460.730469 227.859375 C 460.792969 228.792969 460.851562 229.785156 460.910156 230.832031 C 460.964844 231.882812 461.011719 232.960938 461.050781 234.070312 C 461.089844 235.183594 461.125 236.308594 461.160156 237.449219 L 461.160156 255.632812 L 455.976562 255.632812 L 455.976562 220.839844 L 462.941406 220.839844 L 479.9375 248.421875 L 480.105469 248.421875 C 480.070312 247.613281 480.03125 246.683594 479.984375 245.636719 C 479.9375 244.589844 479.894531 243.507812 479.855469 242.390625 C 479.8125 241.269531 479.785156 240.1875 479.769531 239.140625 L 479.769531 220.839844 L 484.976562 220.839844 Z M 484.976562 255.632812 "/>
<path style=" stroke:none;fill-rule:nonzero;fill:rgb(0%,37.254902%,70.980392%);fill-opacity:1;" d="M 509.988281 255.632812 L 490.308594 255.632812 L 490.308594 220.839844 L 509.988281 220.839844 L 509.988281 225.644531 L 496.011719 225.644531 L 496.011719 235.09375 L 509.109375 235.09375 L 509.109375 239.878906 L 496.011719 239.878906 L 496.011719 250.800781 L 509.988281 250.800781 Z M 509.988281 255.632812 "/>
<path style=" stroke:none;fill-rule:nonzero;fill:rgb(0%,37.254902%,70.980392%);fill-opacity:1;" d="M 529.527344 255.632812 L 523.800781 255.632812 L 523.800781 225.691406 L 513.625 225.691406 L 513.625 220.839844 L 539.675781 220.839844 L 539.675781 225.691406 L 529.527344 225.691406 Z M 529.527344 255.632812 "/>
</g>
</svg>
